<svg width="95" height="71" viewBox="0 0 95 71" fill="none" xmlns="http://www.w3.org/2000/svg">
<path d="M92.771 20.7083H81.6623L78.5748 13.0167C75.402 5.10867 67.8298 0 59.2816 0H35.7171C27.1708 0 19.5968 5.10867 16.4221 13.0167L13.3346 20.7083H2.22775C0.778623 20.7083 -0.284562 22.0655 0.0679776 23.4651L1.18126 27.9026C1.42804 28.89 2.31866 29.5833 3.34103 29.5833H7.06496C4.57306 31.7522 2.96808 34.9046 2.96808 38.4583V47.3333C2.96808 50.3139 4.11105 53.0041 5.93683 55.086V65.0833C5.93683 68.3504 8.59572 71 11.8743 71H17.8118C21.0905 71 23.7494 68.3504 23.7494 65.0833V59.1667H71.2494V65.0833C71.2494 68.3504 73.9083 71 77.1869 71H83.1244C86.4031 71 89.0619 68.3504 89.0619 65.0833V55.086C90.8877 53.0059 92.0307 50.3157 92.0307 47.3333V38.4583C92.0307 34.9046 90.4257 31.7522 87.9357 29.5833H91.6596C92.682 29.5833 93.5726 28.89 93.8194 27.9026L94.9327 23.4651C95.2833 22.0655 94.2201 20.7083 92.771 20.7083ZM27.4473 17.4116C28.7999 14.0428 32.0749 11.8333 35.7171 11.8333H59.2816C62.9239 11.8333 66.1988 14.0428 67.5515 17.4116L71.2494 26.625H23.7494L27.4473 17.4116ZM17.8118 47.2964C14.2493 47.2964 11.8743 44.9371 11.8743 41.3982C11.8743 37.8593 14.2493 35.5 17.8118 35.5C21.3744 35.5 26.7181 40.8084 26.7181 44.3473C26.7181 47.8862 21.3744 47.2964 17.8118 47.2964ZM77.1869 47.2964C73.6244 47.2964 68.2807 47.8862 68.2807 44.3473C68.2807 40.8084 73.6244 35.5 77.1869 35.5C80.7494 35.5 83.1244 37.8593 83.1244 41.3982C83.1244 44.9371 80.7494 47.2964 77.1869 47.2964Z" fill="#5FB477"/>
</svg>
