<svg width="79" height="79" viewBox="0 0 79 79" fill="none" xmlns="http://www.w3.org/2000/svg">
<path d="M0 39.5C0 17.6852 17.6852 0 39.5 0C61.3148 0 79 17.6852 79 39.5C79 61.3148 61.3148 79 39.5 79C17.6852 79 0 61.3148 0 39.5ZM41.5648 22.4432C41.5648 21.6575 41.2527 20.904 40.6971 20.3484C40.1415 19.7928 39.388 19.4807 38.6023 19.4807C37.8166 19.4807 37.063 19.7928 36.5075 20.3484C35.9519 20.904 35.6398 21.6575 35.6398 22.4432V42.1932C35.6398 43.2561 36.2107 44.24 37.1336 44.7643L49.7018 51.9461C50.3816 52.3063 51.175 52.3878 51.9139 52.1735C52.6529 51.9592 53.2794 51.4658 53.6611 50.7977C54.0427 50.1296 54.1494 49.3393 53.9587 48.5939C53.768 47.8485 53.2947 47.2066 52.6391 46.8039L41.5648 40.4731V22.4432Z" fill="#5FB477"/>
</svg>
