<svg width="72" height="76" viewBox="0 0 72 76" fill="none" xmlns="http://www.w3.org/2000/svg">
<path fill-rule="evenodd" clip-rule="evenodd" d="M36.0803 0C26.5861 0 17.9348 3.15004 12.8167 5.7237C12.3543 5.95594 11.9234 6.18396 11.522 6.40353C10.7275 6.83846 10.0506 7.24383 9.51257 7.60063L15.3348 16.2105L18.0756 17.3062C28.7868 22.7343 43.151 22.7343 53.8643 17.3062L56.975 15.6847L62.4819 7.60063C61.3411 6.85322 60.1547 6.1784 58.9298 5.58013C53.839 3.03392 45.3958 0 36.0803 0ZM22.5379 9.7457C20.4762 9.35817 18.4399 8.84488 16.4404 8.20868C21.2347 6.06995 28.3811 3.80032 36.0782 3.80032C41.4106 3.80032 46.453 4.88974 50.6232 6.27052C45.7363 6.96091 40.5215 8.13268 35.5527 9.57469C31.6432 10.7106 27.0737 10.5881 22.5379 9.7457ZM56.0838 20.4373L55.5689 20.6991C43.7837 26.6698 28.1541 26.6698 16.3689 20.6991L15.8813 20.4499C-1.82075 39.9603 -15.3358 76 36.0803 76C87.4922 76 73.6471 39.2868 56.0838 20.4373ZM33.8943 38.0032C32.7794 38.0032 31.7102 38.448 30.9218 39.2399C30.1335 40.0318 29.6906 41.1058 29.6906 42.2257C29.6906 43.3456 30.1335 44.4197 30.9218 45.2115C31.7102 46.0034 32.7794 46.4483 33.8943 46.4483V38.0032ZM38.0981 33.7806V31.6693H33.8943V33.7806C31.6645 33.7806 29.526 34.6703 27.9493 36.2541C26.3726 37.8379 25.4868 39.9859 25.4868 42.2257C25.4868 44.4655 26.3726 46.6136 27.9493 48.1974C29.526 49.7811 31.6645 50.6709 33.8943 50.6709V59.116C33.025 59.1162 32.1769 58.8457 31.467 58.3417C30.757 57.8377 30.2201 57.125 29.9302 56.3017C29.7446 55.7737 29.3577 55.3413 28.8547 55.0998C28.3518 54.8583 27.7739 54.8273 27.2482 55.0138C26.7225 55.2003 26.2921 55.5888 26.0517 56.0941C25.8112 56.5993 25.7804 57.1798 25.9661 57.7078C26.5458 59.3546 27.6196 60.7803 29.0394 61.7887C30.4593 62.7971 32.1554 63.3386 33.8943 63.3386V65.4499H38.0981V63.3386C40.3279 63.3386 42.4664 62.4489 44.0431 60.8651C45.6198 59.2813 46.5056 57.1333 46.5056 54.8935C46.5056 52.6537 45.6198 50.5056 44.0431 48.9218C42.4664 47.3381 40.3279 46.4483 38.0981 46.4483V38.0032C39.9267 38.0032 41.4842 39.1749 42.0643 40.8175C42.1504 41.0862 42.2892 41.3349 42.4727 41.5488C42.6561 41.7627 42.8803 41.9375 43.1322 42.0628C43.384 42.1881 43.6583 42.2614 43.9388 42.2784C44.2193 42.2954 44.5004 42.2557 44.7654 42.1616C45.0304 42.0676 45.2739 41.9211 45.4816 41.7309C45.6892 41.5406 45.8568 41.3105 45.9743 41.0541C46.0919 40.7977 46.1571 40.5202 46.166 40.238C46.175 39.9559 46.1275 39.6748 46.0264 39.4114C45.4466 37.7646 44.3728 36.3389 42.953 35.3305C41.5331 34.3221 39.837 33.7806 38.0981 33.7806ZM38.0981 50.6709V59.116C39.213 59.116 40.2822 58.6712 41.0706 57.8793C41.8589 57.0874 42.3018 56.0134 42.3018 54.8935C42.3018 53.7736 41.8589 52.6995 41.0706 51.9076C40.2822 51.1158 39.213 50.6709 38.0981 50.6709Z" fill="#5FB477"/>
</svg>
