<svg width="76" height="76" viewBox="0 0 76 76" fill="none" xmlns="http://www.w3.org/2000/svg">
<path d="M21.76 2.63314C22.7844 1.60902 24.0409 0.84751 25.4228 0.413388C26.8047 -0.0207343 28.271 -0.114622 29.6969 0.139711C31.1228 0.394044 32.4663 0.989073 33.6129 1.87418C34.7595 2.75929 35.6754 3.90828 36.2826 5.22342L39.4328 12.0435C40.4367 14.2216 41.9224 16.1432 43.7776 17.663C45.6329 19.1828 47.8093 20.2611 50.1423 20.8165L62.7532 23.8179C69.5983 25.4471 72.0033 33.9529 67.0288 38.9279L55.6975 50.2552L74.8143 69.3739C75.3095 69.8481 75.669 70.4461 75.8553 71.1059C76.0416 71.7658 76.0481 72.4635 75.8741 73.1267C75.7 73.7899 75.3518 74.3944 74.8655 74.8777C74.3792 75.361 73.7724 75.7054 73.1082 75.8753C72.4464 76.0479 71.7507 76.0412 71.0923 75.8561C70.434 75.6709 69.8367 75.3139 69.3619 74.8217L50.2502 55.703L38.924 67.0354C33.9495 72.0104 25.4446 69.6052 23.8156 62.7594L20.8144 50.1473C20.2591 47.814 19.1809 45.6374 17.6613 43.782C16.1416 41.9265 14.2202 40.4407 12.0423 39.4367L5.2229 36.2862C3.90789 35.6789 2.75901 34.7629 1.87399 33.6162C0.988975 32.4695 0.394006 31.1259 0.139697 29.6998C-0.114611 28.2737 -0.0207323 26.8073 0.413347 25.4253C0.847426 24.0433 1.60886 22.7866 2.63288 21.7621L21.76 2.63314ZM29.2834 8.45098C29.1961 8.26324 29.0652 8.09907 28.9016 7.97213C28.738 7.84519 28.5465 7.75916 28.343 7.72118C28.1387 7.68543 27.9288 7.69946 27.7311 7.76208C27.5334 7.82471 27.3537 7.93409 27.2072 8.08095L8.08015 27.2099C7.9333 27.3564 7.82394 27.5361 7.76132 27.7338C7.6987 27.9315 7.68467 28.1415 7.72042 28.3458C7.79751 28.7569 8.06987 29.1115 8.45015 29.2863L15.2747 32.4367C18.5095 33.9308 21.3632 36.1395 23.6207 38.8966C25.8781 41.6537 27.4805 44.8873 28.307 48.3536L31.3081 60.9658C31.3617 61.1876 31.4732 61.3913 31.6312 61.556C31.7892 61.7207 31.9881 61.8405 32.2076 61.9032C32.427 61.9659 32.6592 61.9693 32.8803 61.9129C33.1015 61.8566 33.3038 61.7426 33.4665 61.5825L61.5764 33.4698C61.7381 33.3077 61.8535 33.1055 61.9108 32.8839C61.9681 32.6623 61.9651 32.4294 61.9023 32.2093C61.8394 31.9892 61.7189 31.7899 61.5532 31.632C61.3875 31.4741 61.1826 31.3634 60.9598 31.3112L48.3488 28.3098C44.8815 27.483 41.6472 25.8799 38.8894 23.6213C36.1317 21.3627 33.9225 18.5076 32.4284 15.271L29.2834 8.45098Z" fill="#5FB477"/>
</svg>
